<?xml version="1.0" encoding="UTF-8" standalone="no"?>
<svg width="126px" height="96px" viewBox="0 0 126 96" version="1.1" xmlns="http://www.w3.org/2000/svg" xmlns:xlink="http://www.w3.org/1999/xlink">
    <!-- Generator: Sketch 49.2 (51160) - http://www.bohemiancoding.com/sketch -->
    <title>Page 1</title>
    <desc>Created with Sketch.</desc>
    <defs>
        <polygon id="path-1" points="2.2496863e-15 0 125.061332 0 125.061332 95.2453853 0 95.2453853"></polygon>
    </defs>
    <g id="Page-1" stroke="none" stroke-width="1" fill="none" fill-rule="evenodd">
        <g id="Desktop-HD-Copy-3" transform="translate(-1053.000000, -3591.000000)">
            <g id="Page-1" transform="translate(1053.594995, 3590.969574)">
                <mask id="mask-2" fill="white">
                    <use xlink:href="#path-1"></use>
                </mask>
                <g id="Clip-2"></g>
                <path d="M124.975678,86.5147475 C124.83596,86.2728533 124.685337,86.0152428 124.47542,85.8416803 C124.189851,85.6052527 124.084211,85.3380757 124.108746,84.9868509 C124.144187,84.454547 124.03991,83.9420593 123.805457,83.469204 C123.409476,82.6717731 123.024401,81.8627259 122.561629,81.1028775 C121.974133,80.1359841 121.275545,79.2394723 120.476768,78.4379415 C118.836278,76.7897811 117.428197,74.9434588 115.945145,73.1613683 C115.423078,72.5334001 114.881246,71.9184149 114.31147,71.3341789 C113.668087,70.6727281 112.880898,70.2258389 111.992157,69.9743782 C111.543697,69.8472813 111.091148,69.8226819 110.62565,69.9080965 C109.971362,70.0283603 109.386593,70.3092035 108.816135,70.6330957 C108.62462,70.7410598 108.450143,70.8941228 108.157759,70.8661068 C108.093693,70.7677092 108.012588,70.6481287 107.935573,70.5264983 C107.532096,69.8841804 107.149747,69.2281962 106.723097,68.6022779 C106.22761,67.8765953 105.782558,67.1338298 105.456096,66.308383 C105.161666,65.5649342 104.777272,64.852918 104.382655,64.1559347 C103.825829,63.1753749 102.742847,62.7257524 101.638055,62.9649133 C100.846776,63.1364259 100.120244,63.4760344 99.4162028,63.865525 C98.9813741,64.1046859 98.526099,64.2591156 98.0306124,64.3165142 C97.4253963,64.3855292 96.8242695,64.4839268 96.2231427,64.5768579 C95.72493,64.6540727 95.2294434,64.7941527 94.7298675,64.8146522 C93.9079186,64.8488181 93.0846066,64.8460848 92.2612947,64.8426682 C93.5194353,59.08094 94.1968957,53.1271997 91.1237883,47.8984587 C89.2720179,44.7483677 86.0721424,42.6184689 82.5090008,41.9440351 C79.0753537,41.294884 75.7800612,42.2453779 72.4486465,42.9252782 C71.424959,42.7858815 70.4176286,42.5597036 69.421203,42.2795437 C68.0492436,41.8948363 66.6875074,41.4718631 65.3264528,41.0482066 C64.1221546,40.6723823 62.9212641,40.2863083 61.7278707,39.8783681 C60.6462514,39.5086936 59.5816708,39.089137 58.5007331,38.7187793 C57.6971861,38.4427192 56.9379398,38.0716781 56.1875536,37.6815042 C55.4085424,37.2756139 54.6717872,36.8075419 54.0140918,36.2274058 C53.001309,35.5700549 52.0157882,34.8600886 51.0159549,34.2410035 C50.2648872,33.7756647 49.4899653,33.3362919 48.6659717,33.0117164 C47.7595107,32.6536583 46.8407818,32.4923955 45.8791153,32.3591487 C45.3938519,32.2921837 44.9010915,32.2204354 44.43423,32.0666891 C44.1697888,31.9799079 43.857639,31.8821935 43.5829745,31.7455302 C43.4616587,31.7660297 43.3396613,31.7878958 43.2183455,31.8118119 C43.2081222,31.7988289 43.1999436,31.7858459 43.1904019,31.7728628 C42.3411911,30.656323 41.5839894,29.4871678 41.021711,28.1963821 C40.9167523,27.9558545 40.8704069,27.7201102 40.9194785,27.4597665 C41.0769165,26.6254365 40.9999014,25.7993064 40.8090675,24.9806927 C40.7013826,24.5187705 40.7327339,24.0739312 40.8520051,23.6147422 C41.0414759,22.8815431 41.2329913,22.1435609 41.3413577,21.3960122 C41.4926618,20.3409709 41.365212,19.2852462 41.1791489,18.2418213 C41.070101,17.6268361 40.9119815,17.0214173 40.7995258,16.4071154 C40.6679867,15.6909993 40.5657542,14.9700999 40.4458015,14.2519338 C40.2481521,13.0752621 39.9612197,11.9190899 39.5584239,10.7970835 C38.7296595,8.49225556 37.4544801,6.47715398 35.6783618,4.77911145 C34.1489644,3.31681325 32.2999202,2.36700274 30.4495129,1.4240254 C29.3590335,0.868488744 28.1622323,0.584228908 26.9722466,0.33140165 C24.9609936,-0.0963547388 22.9347465,-0.0895215697 20.9057732,0.234370648 C19.5058703,0.458498596 18.1741223,0.927253999 16.8307879,1.35296044 C16.5479448,1.44179164 16.2644202,1.54018927 15.9972527,1.6666029 C14.0343897,2.59728054 12.1233245,3.62567249 10.3744682,4.92329131 C8.50429593,6.31042465 6.80655577,7.8841035 5.40324506,9.75707517 C5.05565474,10.2210474 4.71147217,10.6884361 4.37683129,11.1619747 C3.64552853,12.1944666 2.95784494,13.2577077 2.43577791,14.4131966 C1.93347582,15.5235866 1.47342981,16.6544761 1.00929451,17.7826323 C0.227557067,19.6856699 -0.10299451,21.6679723 0.0278630216,23.7220229 C0.188027188,26.2571287 1.01611,28.5517069 2.5564122,30.572275 C3.12414305,31.3170904 3.74026393,32.0243235 4.34002761,32.7431728 C4.72305851,33.2016785 5.06724108,33.6834169 5.31532515,34.2307538 C5.64587673,34.9591696 5.70449,35.693052 5.37666462,36.4358175 C5.2321761,36.7617596 5.06519643,37.077452 4.91048466,37.3999776 C4.69238878,37.8564333 4.44771246,38.3012726 4.26778335,38.772078 C3.84931187,39.8647017 4.18463429,40.6095172 5.26829823,41.0632396 C5.48707566,41.1548041 5.71266859,41.2306522 5.93621688,41.3133336 C6.088884,41.3700489 6.24427732,41.421981 6.39626289,41.4807462 C6.73499306,41.6105764 6.92582696,41.8572539 6.95172585,42.2200951 C6.96944614,42.4715558 6.97558008,42.724383 6.97830628,42.9772103 C6.98171403,43.2601035 6.96808304,43.5429967 6.97489853,43.8258899 C6.98989263,44.4456583 7.30476856,44.8433488 7.86841012,45.0879762 C8.71762097,45.456284 9.58387057,45.7501103 10.5073703,45.8649076 C10.8856304,45.9120564 10.9619639,46.0111374 11.0076278,46.4204442 C11.0560178,46.8441007 11.2195897,47.2233416 11.4124683,47.595066 C11.5617276,47.8813758 11.8043593,48.0351221 12.1171906,48.0829543 C12.2480481,48.1027704 12.3823134,48.1143868 12.5158971,48.1150702 C13.1613246,48.1178034 13.7801717,48.2653999 14.3962926,48.4451122 C14.6668678,48.5236937 14.8679249,48.6610404 15.0199105,48.9063511 C15.3654562,49.4618878 15.8759369,49.815846 16.5009179,49.9784754 C17.5941235,50.2634185 18.5080816,49.8390787 19.357974,49.2029107 C19.3811467,49.1858278 19.406364,49.162595 19.4152242,49.1366289 C19.5256352,48.8195699 19.7928027,48.7457717 20.0790535,48.6917896 C20.2392177,48.662407 20.3980188,48.6207247 20.5575014,48.5858755 C22.000342,48.274283 23.2652981,47.6292318 24.3189738,46.579657 C24.6447546,46.2543982 24.9916633,45.9503222 25.3358459,45.6428296 C25.453754,45.5375988 25.5893824,45.4508175 25.6895702,45.376336 C25.7706746,45.3954688 25.803389,45.3954688 25.8265617,45.4111851 C26.0330712,45.5478485 26.2375361,45.6851952 26.4426825,45.8225419 C26.4467718,45.874474 26.4501796,45.9270894 26.4542689,45.9783382 C26.538781,47.232908 26.8911422,48.5086607 27.169896,49.7324813 C27.7730674,52.3769177 28.5977425,54.9701054 29.7843204,57.4122801 C30.9272792,59.7656235 32.5848079,61.9850369 34.7466834,63.4835509 C34.7453203,63.4890174 34.7432756,63.4951673 34.741231,63.5006338 C34.2280241,65.3811219 33.7298113,67.2663933 33.2131967,69.1461981 C32.9174041,70.2237889 32.6325164,71.302063 32.6475105,72.4343191 C32.6563706,73.0745871 32.3237744,73.5262596 31.837148,73.8932007 C31.611555,74.0626633 31.3825543,74.2293927 31.1753633,74.4193548 C30.6267158,74.9209094 30.0944255,75.4395469 29.544415,75.9383683 C29.3828877,76.0859647 29.1934169,76.211695 28.9984937,76.3128259 C28.3258042,76.6620009 27.6422099,76.9865764 26.970202,77.337118 C26.3268191,77.6739932 25.6922964,78.0259014 25.0577737,78.3791763 C24.7865169,78.5288227 24.4818642,78.6552363 24.2699023,78.8691145 C24.0286337,79.111692 23.7519245,79.2531386 23.4595397,79.3986851 C23.2237236,79.5162156 22.9919967,79.6569789 22.7882134,79.8237082 C22.5489894,80.0191369 22.5067333,80.2794806 22.5953348,80.5897065 C22.7173322,81.0215628 22.8945351,81.4178866 23.0908214,81.8203603 C23.2625719,82.1729518 23.4854386,82.3485642 23.8425706,82.4291956 C24.0579403,82.4777111 24.2624052,82.5685923 24.4743672,82.6341907 C24.5984092,82.6738231 24.725859,82.7093556 24.8539903,82.7353216 C25.1143423,82.787937 25.3760573,82.8371358 25.638454,82.8801848 C25.9730948,82.9348502 26.3090988,82.9778991 26.6444212,83.0305145 C26.950437,83.0803967 27.2564528,83.1787943 27.5611055,83.1753777 C27.9066512,83.1712778 28.2372027,83.2218433 28.5738883,83.2676255 C28.8192461,83.3017913 29.0721011,83.290175 29.3208667,83.2833418 C29.5805371,83.275142 29.7018529,83.3489402 29.7802311,83.6031341 C29.8252134,83.7445807 29.847023,83.8942271 29.9001839,84.0322571 C29.9737912,84.2229025 29.9185857,84.3663991 29.8081747,84.5276619 C29.530784,84.9342354 29.1511608,85.1945792 28.7183768,85.4146072 C28.268554,85.6407851 27.8262283,85.8901958 27.4138908,86.1792389 C26.1734704,87.0470513 24.9425918,87.9305801 23.7219364,88.8270919 C23.3654859,89.088119 23.009717,89.3751121 22.7350525,89.7160872 C22.3288489,90.2203751 22.3826913,90.6829807 22.825017,91.1599359 C22.9538299,91.2979659 23.1228542,91.3997801 23.2768844,91.5132107 C23.3573073,91.5726593 23.4452272,91.6225414 23.5576829,91.6942897 C23.4125128,92.0735306 23.1753335,92.4336386 23.4268254,92.8436287 C23.6496921,93.2044201 23.902547,93.5337788 24.2937565,93.7148578 C24.6788321,93.8932035 25.0734493,93.7278408 25.4864684,93.6478927 C25.5130488,93.831705 25.5307691,93.9608519 25.5525787,94.0893155 C25.638454,94.5990699 26.230039,95.1997055 26.7282518,95.2379712 C27.1296846,95.2687205 27.5222572,95.205172 27.8957464,95.0220431 C28.5752514,94.6885844 29.2622534,94.3735753 29.9492555,94.0571996 C30.0378569,94.0168839 30.1434971,94.0141506 30.2464111,93.9916011 C30.3275155,94.1057151 30.3929443,94.2041127 30.464507,94.2984104 C30.8734368,94.8354975 31.3477953,94.9926604 31.9966306,94.7951818 C32.1663364,94.7439331 32.3333161,94.6749181 32.489391,94.5908701 C32.9330798,94.3537591 33.3781317,94.1159648 33.8088711,93.8549378 C34.3902329,93.5023462 34.9293387,93.0739065 35.5734031,92.8292791 C35.7785495,92.7513809 35.9843775,92.6584498 36.1977026,92.6249673 C36.7218143,92.5443359 37.2193455,92.3639403 37.645314,92.0762638 C38.7903174,91.3041157 39.8930647,90.4718357 40.8567759,89.4700931 C41.5839894,88.7150279 42.1312738,87.8718149 42.2607682,86.7955907 C42.3357387,86.175139 42.663564,85.6865674 43.1631399,85.3107431 C43.3887329,85.1419638 43.6115996,84.9649847 43.8119752,84.7668228 C44.7347934,83.8580113 45.5751441,82.8747183 46.3521107,81.8381265 C47.9224011,79.7423935 49.4258996,77.6015616 50.7951328,75.3671153 C52.0471395,73.3239978 53.3379946,71.3061629 54.3473696,69.1256986 C54.3705423,69.0737666 54.4141614,69.0300343 54.4884503,68.9275367 C54.6308942,68.9623859 54.7637964,68.9781022 54.882386,69.0279843 C55.5789298,69.3245439 56.268658,69.6388696 56.9665649,69.9299626 C57.8580318,70.3010037 58.7529065,70.6611117 59.6498258,71.0171199 C60.0069578,71.1592498 60.3879441,71.2398812 60.6960045,71.4968083 C60.7818798,71.5692399 60.9093295,71.6047724 61.0231483,71.6307384 C62.2962831,71.9211481 63.5626023,72.2552901 64.8480049,72.4773681 C65.9418921,72.6659636 67.0582704,72.7342953 68.1664701,72.8340595 C68.4493132,72.8586589 68.6374209,72.9420236 68.7566921,73.2105672 C68.8820973,73.4961936 69.0395352,73.7681538 69.1908392,74.0401139 C69.6761026,74.9133929 70.237018,75.7361065 70.8435971,76.5294374 C71.5115158,77.4027164 72.1385415,78.3087946 72.818728,79.1725072 C73.1431456,79.583864 73.4232625,80.0116204 73.6699835,80.4735426 C74.2377144,81.5367838 74.8034006,82.6020748 75.4242923,83.6338834 C76.2005773,84.9233024 77.1479313,86.091091 78.1259551,87.2329135 C78.7863767,88.0043783 79.5238134,88.6870119 80.341673,89.2903808 C81.6359357,90.2429246 83.0964966,90.5914162 84.6661054,90.5053183 C85.373554,90.4663692 86.080321,90.3351723 86.7782278,90.2012422 C87.728308,90.0167467 88.6824775,89.8800833 89.6489149,89.8657336 C91.1040234,89.8452341 92.5598134,89.8677836 94.0142403,89.8261012 C94.7830283,89.8035518 95.5531794,89.7085707 96.316515,89.6033399 C97.256372,89.4735097 98.196229,89.3259133 99.1265442,89.1366345 C100.216342,88.9152398 101.314319,88.6993116 102.375491,88.3747361 C103.450977,88.0440107 104.491021,87.5930216 105.538563,87.1775649 C106.850546,86.6555108 108.157759,86.1259401 109.458155,85.5799699 C109.991127,85.355842 110.503652,85.0818319 111.020949,84.8214882 C111.259491,84.702591 111.479632,84.6725251 111.742028,84.7777559 C112.818195,85.2089288 113.901859,85.6155024 114.98007,86.0364256 C115.200211,86.1225236 115.438072,86.1990551 115.618682,86.3425516 C116.243664,86.8372731 116.955201,87.1679984 117.668102,87.5041904 C117.850076,87.5902883 118.033413,87.7071355 118.171086,87.852682 C118.647489,88.3583365 119.228851,88.6521628 119.895406,88.8113756 C120.351363,88.9207063 120.806638,88.8831239 121.26464,88.9029401 C121.824874,88.9289061 122.356482,88.8571579 122.892862,88.7239111 C123.150488,88.6603626 123.418337,88.6220968 123.682778,88.5974974 C124.09716,88.5585484 124.359557,88.3310038 124.538123,87.9729458 C124.643081,87.7624842 124.757582,87.5561225 124.880261,87.3559106 C125.044514,87.0880504 125.140613,86.8037905 124.975678,86.5147475" id="Fill-1" fill="#C1C1C1" mask="url(#mask-2)"></path>
            </g>
        </g>
    </g>
</svg>