<svg id="f02e7999-1854-4f2d-9e74-9b8991751d1c" data-name="Layer 1" xmlns="http://www.w3.org/2000/svg" xmlns:xlink="http://www.w3.org/1999/xlink" viewBox="0 0 111.52 141.32"><defs><linearGradient id="df9e32eb-8732-4839-8fd8-45aa5e93297a" x1="615.74" y1="272.25" x2="726.26" y2="272.25" gradientUnits="userSpaceOnUse"><stop offset="0" stop-color="#c3d0d8"/><stop offset="0.51" stop-color="#fff"/><stop offset="1" stop-color="#bdccd4"/></linearGradient></defs><title>transfusionShell</title><path d="M719.2,206.67c-14.34-3.71-45.22.35-78.63,3.66-4.64.46-19.3-.16-21.71,0.56-1.26.38-3.26,2.92-3.12,4.22,3,27.64,6.74,77.45,12.58,93.2,1.76,4.75,24.27,31,24.27,31l14.3-.39v-6.7l-10.63-.33-23-28.34s-10.4-80.36-9.68-85.21c2.72-1.73,35.58-3.11,35.58-3.11s0,6.63,13.18,6.95,13.06-6.95,13.06-6.95,32.31-.56,35,1.18c0.73,4.85-8.89,88.33-8.89,88.33L692.2,331.41l-13.14.56v6.76l16.1-.35s19.58-23.87,22.79-32.82c5.29-14.74,5.41-64.15,8.29-90.45C726.53,212.44,723.85,207.87,719.2,206.67Zm-48.5,10.77a3.56,3.56,0,1,1,3.69-3.55A3.62,3.62,0,0,1,670.7,217.44Z" transform="translate(-615.24 -204.69)" opacity="0.2" fill="url(#df9e32eb-8732-4839-8fd8-45aa5e93297a)"/><path d="M679.05,338.73l16.1-.35s19.58-23.87,22.79-32.82c5.29-14.74,5.41-64.15,8.29-90.45,0.29-2.66-2.39-7.24-7-8.44-14.34-3.71-45.22.35-78.63,3.66-4.64.46-19.3-.16-21.71,0.56-1.26.38-3.26,2.92-3.12,4.22,3,27.64,6.74,77.45,12.58,93.2,1.76,4.75,24.27,31,24.27,31l14.3-.39m3.81-121.48a3.56,3.56,0,1,1,3.69-3.55A3.62,3.62,0,0,1,670.7,217.44Z" transform="translate(-615.24 -204.69)" fill="none" stroke="#b4b4b4" stroke-miterlimit="10" opacity="0.2"/><path d="M689.9,218.21s27.75-.87,27.38,2.38-1.5,16.13-1.5,16.13-25.57-13.17-29.12-14.37C685.54,222,689.9,218.21,689.9,218.21Z" transform="translate(-615.24 -204.69)" fill="none" stroke="#b4b4b4" stroke-miterlimit="10" stroke-width="0.5" opacity="0.6"/><path d="M654.21,219.37s-27.75-.87-27.37,2.38,1.5,16.13,1.5,16.13,25.57-13.17,29.13-14.37C658.56,223.12,654.21,219.37,654.21,219.37Z" transform="translate(-615.24 -204.69)" fill="none" stroke="#b4b4b4" stroke-miterlimit="10" stroke-width="0.5" opacity="0.6"/><path d="M633.6,303.2l22.81,28.34,10.53,0.33v11.3h12V331.63l13-.56,19.16-26.68s9.53-83.48,8.81-88.33c-2.7-1.73-32.37-1-32.37-1s-2.19,7.13-15.29,6.81-16-4.88-16-4.88-29.67-.69-32.37,1C623.29,222.84,633.6,303.2,633.6,303.2Z" transform="translate(-615.24 -204.69)" fill="none" stroke="#989898" stroke-miterlimit="10" stroke-width="0.5" opacity="0.4"/><rect x="48.76" y="132.46" width="18" height="3.71" fill="none" stroke="#b4b4b4" stroke-miterlimit="10" stroke-width="0.5" opacity="0.4"/><rect x="48.75" y="136.17" width="18" height="2.69" fill="none" stroke="#b4b4b4" stroke-miterlimit="10" stroke-width="0.5" opacity="0.4"/><rect x="48.75" y="138.85" width="18" height="2.21" fill="none" stroke="#b4b4b4" stroke-miterlimit="10" stroke-width="0.5" opacity="0.4"/></svg>