<?xml version="1.0" encoding="UTF-8" standalone="no"?>
<svg width="99px" height="259px" viewBox="0 0 99 259" version="1.1" xmlns="http://www.w3.org/2000/svg" xmlns:xlink="http://www.w3.org/1999/xlink">
    <!-- Generator: Sketch 49.2 (51160) - http://www.bohemiancoding.com/sketch -->
    <title>Page 1 Copy 7</title>
    <desc>Created with Sketch.</desc>
    <defs>
        <rect id="path-1" x="0" y="0" width="98.8058387" height="258.120679"></rect>
    </defs>
    <g id="Page-1" stroke="none" stroke-width="1" fill="none" fill-rule="evenodd">
        <g id="Desktop-HD-Copy-3" transform="translate(-467.000000, -3517.000000)">
            <g id="Page-1-Copy-7" transform="translate(467.144167, 3516.969574)">
                <g id="Fill-1">
                    <mask id="mask-2" fill="white">
                        <use xlink:href="#path-1"></use>
                    </mask>
                    <g id="Mask"></g>
                    <path d="M96.2485156,127.467881 C93.7228863,115.680114 91.8835776,104.029451 87.6721688,92.6989485 C83.581607,81.6893739 84.3728138,70.380318 83.6864932,58.8529702 C83.4615199,55.1205605 83.4569597,50.428432 81.5386063,47.0866501 C79.7988635,44.0627318 74.0734452,43.4821518 71.0826684,42.6794501 C66.9335833,41.5742034 61.3806951,40.6290375 58.2120679,37.438145 C55.0001181,34.2028283 57.6876369,28.7554862 58.7152176,25.2038376 C59.0313963,23.4927349 62.9600685,22.1010279 61.1557218,16.2193997 C62.9950305,7.32151265 58.8109833,0.541440677 49.3013013,-7.65936734e-05 C39.7916194,0.541440677 35.6090922,7.32151265 37.4468808,16.2193997 C35.6425342,22.1010279 39.5704463,23.4927349 39.8889051,25.2038376 C40.8602425,28.5624702 43.2741452,33.2944273 41.0023709,36.6974842 C38.6652328,40.198581 32.7672843,41.2555737 29.0430642,42.2704399 C25.535457,43.2286267 21.0481518,43.7778034 18.023173,45.9568934 C15.1783249,48.0027104 15.2573696,54.1271405 15.0293561,57.1755687 C14.1887464,68.4325409 15.3531353,79.9575909 11.6129542,90.7948298 C7.43726749,102.903524 5.03856574,114.946347 2.35636724,127.467881 C0.908481684,133.304319 -2.53452177,145.61139 3.18253606,150.008633 C6.20295455,152.331719 6.02054377,145.958359 6.10794893,144.437975 C6.33216218,140.582249 6.30100034,135.101972 9.52207068,132.359153 C9.67787989,133.374019 8.66245989,140.995089 9.49850929,140.733139 C13.1110028,139.596489 13.4933054,133.634437 12.5865718,130.755281 C11.7459621,121.716462 18.0125324,116.65745 20.9622667,108.42363 C22.523399,104.070811 23.2887642,99.4836161 23.5008167,94.8749748 C23.6695467,91.2183928 26.7963715,87.1803743 26.7963715,84.0377359 C26.7963715,94.8397417 28.8994157,105.400477 27.5039733,116.271417 C23.0767117,128.578489 22.5439202,141.552691 23.692348,154.501618 C24.9091799,168.197332 29.8836739,181.101834 29.7711873,195.000522 C29.3554427,204.704175 28.9290575,214.488251 31.1233072,224.018036 C32.3302585,229.243256 34.0015972,234.3735 34.55643,239.730462 C35.0603398,244.594926 33.4270033,248.406227 32.3849817,253.066952 C30.9363361,259.524565 42.5870646,258.407063 46.7490705,258.243153 C51.2736179,258.070051 43.9186633,243.655122 43.3775113,240.581417 C41.5511234,230.213698 43.6085649,219.99457 43.3820716,209.613829 C43.2741452,204.770811 41.5845653,200.372037 42.0816347,195.496849 C42.5125802,191.259687 43.203461,187.03478 43.7689344,182.810639 C45.4995567,169.884691 47.4125897,156.984019 49.2990212,144.081048 C49.2990212,144.091771 49.3035815,144.091771 49.3035815,144.081048 C51.1383299,156.636283 52.9882792,169.190752 54.6915399,181.76054 C55.2167309,185.622393 55.7449621,189.484246 56.2625527,193.346865 C56.9557137,198.516938 55.6301953,202.634614 55.303376,207.672946 C54.6292162,218.114195 56.8645083,228.39996 55.4865468,238.868017 C55.1308458,241.575603 48.4880533,257.971245 51.0972875,258.20026 C54.1838299,258.46987 66.8294571,259.221254 66.4532349,254.528359 C66.0868932,249.972568 63.6919917,246.04944 63.9215253,241.355014 C64.1837408,235.962053 65.8140371,230.726875 67.114474,225.529229 C69.6241423,215.488564 69.2722415,205.267904 68.8336955,195.000522 C68.7272893,181.812624 73.1043879,169.559934 74.6860414,156.623262 C76.3338188,143.131287 75.7197025,129.111581 71.0986294,116.271417 C69.7001468,105.400477 71.8062312,94.8397417 71.8062312,84.0377359 C71.8062312,86.9268493 74.9398964,90.5305816 75.0599835,93.879257 C75.2157927,98.1064618 75.746304,102.297668 76.9616158,106.360196 C79.637734,115.304805 86.9106038,121.142009 86.0160309,130.755281 C85.1092973,133.634437 85.49236,139.596489 89.1040934,140.733139 C89.9401428,140.995089 88.9247228,133.374019 89.080532,132.359153 C92.3016023,135.101972 92.2704405,140.582249 92.4954138,144.437975 C92.5820589,145.958359 92.3996481,152.331719 95.4223467,150.008633 C101.137884,145.61139 97.694121,133.304319 96.2485156,127.467881" fill="#C1C1C1" mask="url(#mask-2)"></path>
                </g>
            </g>
        </g>
    </g>
</svg>